<?xml version="1.0" encoding="UTF-8" standalone="no" ?>
<!DOCTYPE svg PUBLIC "-//W3C//DTD SVG 1.1//EN" "http://www.w3.org/Graphics/SVG/1.1/DTD/svg11.dtd">
<svg xmlns="http://www.w3.org/2000/svg" xmlns:xlink="http://www.w3.org/1999/xlink" version="1.1" width="370.57300000000004" height="143.12" xml:space="preserve">
<desc>Created with Fabric.js 1.6.0-rc.1</desc>
<defs></defs>
<g style="stroke: none; stroke-width: 1; stroke-dasharray: none; stroke-linecap: butt; stroke-linejoin: miter; stroke-miterlimit: 10; fill: none; fill-rule: nonzero; opacity: 1;" transform="translate(9.999999999999993 10.000000000000007) scale(0.24 0.24)" >
  <circle cx="255.995" cy="255.995" r="203.465" style="stroke: none; stroke-width: 1; stroke-dasharray: none; stroke-linecap: butt; stroke-linejoin: miter; stroke-miterlimit: 10; fill: #5AC3FF; fill-rule: nonzero; opacity: 1;" transform="  matrix(1 0 0 1 0 0) "/>
  <path d="M 209.754 415.288 c -70.945 -70.945 -70.945 -185.968 0 -256.913 C 262.679 105.45 340.13 92.03 405.517 118.07 c -1.848 -2 -3.703 -3.996 -5.647 -5.94 c -79.458 -79.458 -208.285 -79.458 -287.742 0 c -79.457 79.457 -79.458 208.285 0 287.742 c 45.317 45.317 106.688 64.745 165.805 58.371 C 253.035 449.508 229.659 435.192 209.754 415.288 z" style="stroke: none; stroke-width: 1; stroke-dasharray: none; stroke-linecap: butt; stroke-linejoin: miter; stroke-miterlimit: 10; fill: #46A2DE; fill-rule: nonzero; opacity: 1;" transform=" matrix(1 0 0 1 0 0) " stroke-linecap="round" />
  <path d="M 229.457 54.312 l 228.231 228.231 c 2.154 -16.465 2.288 -33.134 0.415 -49.628 L 279.085 53.897 C 262.591 52.024 245.922 52.158 229.457 54.312 z" style="stroke: none; stroke-width: 1; stroke-dasharray: none; stroke-linecap: butt; stroke-linejoin: miter; stroke-miterlimit: 10; fill: #7DD7FF; fill-rule: nonzero; opacity: 1;" transform=" matrix(1 0 0 1 0 0) " stroke-linecap="round" />
  <path d="M 287.568 112.424 c 14.061 -4.066 28.498 -6.425 43.014 -7.028 l -51.499 -51.499 c -16.494 -1.873 -33.163 -1.739 -49.628 0.415 L 287.568 112.424 z" style="stroke: none; stroke-width: 1; stroke-dasharray: none; stroke-linecap: butt; stroke-linejoin: miter; stroke-miterlimit: 10; fill: #5AC3FF; fill-rule: nonzero; opacity: 1;" transform=" matrix(1 0 0 1 0 0) " stroke-linecap="round" />
  <path d="M 53.819 234.038 c -0.855 7.92 -1.268 15.867 -1.196 23.824 l 201.513 201.514 c 7.957 0.072 15.905 -0.342 23.824 -1.196 L 53.819 234.038 z" style="stroke: none; stroke-width: 1; stroke-dasharray: none; stroke-linecap: butt; stroke-linejoin: miter; stroke-miterlimit: 10; fill: #7DD7FF; fill-rule: nonzero; opacity: 1;" transform=" matrix(1 0 0 1 0 0) " stroke-linecap="round" />
  <path d="M 215.064 420.304 l 39.076 39.076 c 7.942 0.071 15.887 -0.284 23.792 -1.137 C 255.202 450.268 233.774 437.587 215.064 420.304 z" style="stroke: none; stroke-width: 1; stroke-dasharray: none; stroke-linecap: butt; stroke-linejoin: miter; stroke-miterlimit: 10; fill: #5AC3FF; fill-rule: nonzero; opacity: 1;" transform=" matrix(1 0 0 1 0 0) " stroke-linecap="round" />
  <path d="M 52.623 257.863 l 154.372 154.373 c -18.335 -19.175 -31.593 -41.351 -39.905 -64.926 L 53.821 234.038 C 52.965 241.959 52.551 249.905 52.623 257.863 z" style="stroke: none; stroke-width: 1; stroke-dasharray: none; stroke-linecap: butt; stroke-linejoin: miter; stroke-miterlimit: 10; fill: #5AC3FF; fill-rule: nonzero; opacity: 1;" transform=" matrix(1 0 0 1 0 0) " stroke-linecap="round" />
  <path d="M 471.109 366.64 c -2.392 -3.906 -7.496 -5.134 -11.404 -2.742 c -3.906 2.392 -5.134 7.497 -2.742 11.404 c 17.794 29.061 30.012 55.139 35.333 75.411 c 3.436 13.09 5.76 30.467 -2.679 38.907 c -13.516 13.515 -52.642 3.466 -104.663 -26.879 c -9.942 -5.8 -20.186 -12.236 -30.654 -19.229 c 67.392 -35.474 113.457 -106.209 113.457 -187.51 c 0 -116.764 -94.995 -211.758 -211.758 -211.758 c -81.302 0 -152.037 46.064 -187.51 113.457 c -6.993 -10.467 -13.429 -20.711 -19.229 -30.653 C 18.914 75.025 8.866 35.899 22.381 22.383 c 8.438 -8.438 25.81 -6.116 38.897 -2.683 c 20.268 5.318 46.338 17.531 75.394 35.318 c 3.908 2.393 9.012 1.163 11.404 -2.742 s 1.163 -9.012 -2.742 -11.404 C 60.796 -10.879 25.433 -4.125 10.653 10.655 c -25.313 25.311 -0.767 81.809 24.28 124.748 c 7.482 12.826 15.974 26.125 25.358 39.76 C 49.958 200.085 44.241 227.386 44.241 256 c 0 116.763 94.995 211.758 211.758 211.758 c 28.614 0 55.915 -5.717 80.837 -16.049 c 13.634 9.384 26.934 17.876 39.76 25.358 c 30.157 17.592 66.996 34.935 95.029 34.933 c 11.881 -0.001 22.185 -3.117 29.719 -10.652 C 516.128 486.566 522.881 451.195 471.109 366.64 z M 255.999 60.83 c 107.617 0 195.171 87.553 195.171 195.171 c 0 78.082 -46.096 145.588 -112.498 176.769 c -44.779 -31.624 -93.014 -72.796 -139.831 -119.612 c -46.816 -46.816 -87.986 -95.051 -119.611 -139.83 C 110.41 106.926 177.917 60.83 255.999 60.83 z M 255.999 451.173 c -107.617 0 -195.171 -87.553 -195.171 -195.171 c 0 -22.612 3.879 -44.333 10.984 -64.547 c 31.294 43.112 70.817 88.947 115.301 133.433 c 44.486 44.486 90.321 84.008 133.433 115.303 C 300.331 447.294 278.611 451.173 255.999 451.173 z" style="stroke: none; stroke-width: 1; stroke-dasharray: none; stroke-linecap: butt; stroke-linejoin: miter; stroke-miterlimit: 10; fill: rgb(0,0,0); fill-rule: nonzero; opacity: 1;" transform=" matrix(1 0 0 1 0 0) " stroke-linecap="round" />
</g>
  <g transform="translate(195.42 70.66)">
   <text font-family="ADAMCG PRO" font-size="40" font-weight="normal" style="stroke: none; stroke-width: 1; stroke-dasharray: none; stroke-linecap: butt; stroke-linejoin: miter; stroke-miterlimit: 10; fill: #f56539; fill-rule: nonzero; opacity: 1;" ><tspan x="-135.92" y="8.98" style="stroke: none; stroke-width: 0; stroke-dasharray: none; stroke-linecap: butt; stroke-linejoin: miter; stroke-miterlimit: 4; fill: #f56539; fill-rule: ; opacity: 1;">N</tspan><tspan x="-106.41" y="8.98" style="stroke: none; stroke-width: 0; stroke-dasharray: none; stroke-linecap: butt; stroke-linejoin: miter; stroke-miterlimit: 4; fill: #f56539; fill-rule: ; opacity: 1;">a</tspan><tspan x="-78.61" y="8.98" style="stroke: none; stroke-width: 0; stroke-dasharray: none; stroke-linecap: butt; stroke-linejoin: miter; stroke-miterlimit: 4; fill: #f56539; fill-rule: ; opacity: 1;">z</tspan><tspan x="-50.43" y="8.98" style="stroke: none; stroke-width: 0; stroke-dasharray: none; stroke-linecap: butt; stroke-linejoin: miter; stroke-miterlimit: 4; fill: #f56539; fill-rule: ; opacity: 1;">i</tspan><tspan x="-39.65" y="8.98" style="stroke: none; stroke-width: 0; stroke-dasharray: none; stroke-linecap: butt; stroke-linejoin: miter; stroke-miterlimit: 4; fill: #f56539; fill-rule: ; opacity: 1;">f</tspan><tspan x="-18.34" y="8.98" style="stroke: none; stroke-width: 0; stroke-dasharray: none; stroke-linecap: butt; stroke-linejoin: miter; stroke-miterlimit: 4; fill: #f56539; fill-rule: ; opacity: 1;">a</tspan><tspan x="9.45" y="8.98" style="stroke: none; stroke-width: 0; stroke-dasharray: none; stroke-linecap: butt; stroke-linejoin: miter; stroke-miterlimit: 4; fill: #f56539; fill-rule: ; opacity: 1;"> </tspan><tspan x="21.45" y="8.98" style="stroke: none; stroke-width: 0; stroke-dasharray: none; stroke-linecap: butt; stroke-linejoin: miter; stroke-miterlimit: 4; fill: #f56539; fill-rule: ; opacity: 1;">S</tspan><tspan x="42.56" y="8.98" style="stroke: none; stroke-width: 0; stroke-dasharray: none; stroke-linecap: butt; stroke-linejoin: miter; stroke-miterlimit: 4; fill: #f56539; fill-rule: ; opacity: 1;">a</tspan><tspan x="70.35" y="8.98" style="stroke: none; stroke-width: 0; stroke-dasharray: none; stroke-linecap: butt; stroke-linejoin: miter; stroke-miterlimit: 4; fill: #f56539; fill-rule: ; opacity: 1;">d</tspan><tspan x="97.34" y="8.98" style="stroke: none; stroke-width: 0; stroke-dasharray: none; stroke-linecap: butt; stroke-linejoin: miter; stroke-miterlimit: 4; fill: #f56539; fill-rule: ; opacity: 1;">i</tspan><tspan x="108.13" y="8.98" style="stroke: none; stroke-width: 0; stroke-dasharray: none; stroke-linecap: butt; stroke-linejoin: miter; stroke-miterlimit: 4; fill: #f56539; fill-rule: ; opacity: 1;">a</tspan></text>
 </g>
<g style="stroke: none; stroke-width: 1; stroke-dasharray: none; stroke-linecap: butt; stroke-linejoin: miter; stroke-miterlimit: 10; fill: none; fill-rule: nonzero; opacity: 1;" transform="translate(317.94000000000005 10) rotate(22.34) scale(0.09 0.09)" >
  <path d="M 433.5 67 c -25.3 -25.3 -59 -39.3 -94.8 -39.3 s -69.6 14 -94.9 39.4 l -7.3 7.3 l -7.5 -7.5 c -25.4 -25.4 -59.1 -39.4 -95 -39.4 c -35.8 0 -69.4 13.9 -94.7 39.3 C 13.9 92.2 0 125.9 0 161.7 s 14 69.5 39.4 94.8 l 182.7 182.7 c 3.8 3.8 9 6 14.5 6 c 5.4 0 10.6 -2.2 14.5 -6 l 182.2 -182.4 c 25.4 -25.4 39.3 -59.1 39.4 -94.9 S 458.8 92.4 433.5 67 z M 132.5 117.2 c -23.9 0 -43.4 19.5 -43.4 43.4 c 0 11 -8.9 19.9 -19.9 19.9 s -19.9 -8.9 -19.9 -19.9 c 0 -45.8 37.3 -83.1 83.1 -83.1 c 11 0 19.9 8.9 19.9 19.9 C 152.4 108.4 143.5 117.2 132.5 117.2 z" style="stroke: none; stroke-width: 1; stroke-dasharray: none; stroke-linecap: butt; stroke-linejoin: miter; stroke-miterlimit: 10; fill: #60abfc; fill-rule: nonzero; opacity: 1;" transform=" matrix(1 0 0 1 0 0) " stroke-linecap="round" />
</g>
</svg>